<?xml version="1.0" encoding="utf-8"?>
<!-- Generator: Adobe Illustrator 27.3.1, SVG Export Plug-In . SVG Version: 6.00 Build 0)  -->
<svg version="1.1" id="Layer_1" xmlns="http://www.w3.org/2000/svg" xmlns:xlink="http://www.w3.org/1999/xlink" x="0px" y="0px"
	 viewBox="0 0 1206 296" style="enable-background:new 0 0 1206 296;" xml:space="preserve">
<style type="text/css">
	.st0{fill:#FFFFFF;}
	.st1{opacity:0.4;}
	.st2{fill:none;stroke:#010101;stroke-width:16.9922;stroke-linecap:round;stroke-linejoin:round;stroke-miterlimit:10;}
	.st3{fill:#089949;}
	.st4{fill:#E42527;}
</style>
<g>
	<g>
		<path d="M460.5,224.1c-7.1,21.8-27.7,33.2-49.9,33.2c-37,0-57.4-23.5-57.4-59.6c0-33,22.9-58.5,56.8-58.5
			c21.7,0,40.7,10.4,49.4,31l-18.4,7.8c-4.9-12.6-16.2-21.4-30.1-21.4c-24.3,0-34.4,20.8-34.4,42c0,22.1,11,41,34.9,41
			c15.1,0,26.1-9.2,31.3-23L460.5,224.1z"/>
		<path d="M514.2,169.8c25.5,0,45.1,17.9,45.1,43.6c0,26.4-20.6,43.8-46,43.8c-25.6,0-46.1-17.7-46.1-43.4
			C467.2,187.5,488.9,169.8,514.2,169.8z M537.7,213.6c0-15.5-7.8-28.3-24.3-28.3c-17,0-23.7,13.5-23.7,28.9
			c0,14.9,7.9,27.6,24.2,27.6C530.7,241.8,537.7,228.3,537.7,213.6z"/>
		<path d="M574,171.6h20.1v12.9c5-9.7,15.2-14.7,26.1-14.7c10.4,0,20.5,4.6,24.4,15c6.4-9.6,17.4-15,29.4-15
			c19.3,0,28.4,14.1,28.4,32.6v53.2h-20v-52c0-10.5-5.3-17.3-16-17.3c-11.7,0-18,8.1-18,19v50.3h-20.1v-52
			c0-10.5-5.3-17.3-16.1-17.3c-11.6,0-18,8.1-18,19v50.3H574V171.6z"/>
		<path d="M723.5,171.6h20.1v12.9c5-9.7,15.2-14.7,26.1-14.7c10.4,0,20.5,4.6,24.4,15c6.4-9.6,17.4-15,29.4-15
			c19.3,0,28.4,14.1,28.4,32.6v53.2h-20v-52c0-10.5-5.3-17.3-16-17.3c-11.7,0-18,8.1-18,19v50.3h-20.1v-52
			c0-10.5-5.3-17.3-16.1-17.3c-11.6,0-18,8.1-18,19v50.3h-20.1V171.6z"/>
		<path d="M948.2,237.4c-7,14.8-22.1,19.9-37.5,19.9c-26.5,0-43.2-17.7-43.2-43.9c0-24.6,17-43.6,42.3-43.6
			c27.2,0,40.4,15.9,40.4,48.3h-62.2c0,14.2,8.2,24.6,23.5,24.6c9.1,0,16.6-3.7,21-12.2L948.2,237.4z M930.2,204.9
			c-0.6-12.7-8.3-20.5-20.2-20.5c-12.6,0-20,8.9-21.7,20.5H930.2z"/>
		<path d="M966.3,171.6h20.1v15.8c5.7-11.5,14.8-17,27.6-17V189c-16.2,0-27.6,5.3-27.6,23.3v43.4h-20.1V171.6z"/>
		<path d="M1103,231.9c-5.6,17.6-21.3,25.3-38.8,25.3c-26.7,0-42.6-17.9-42.6-43.9c0-25,17.8-43.6,43.1-43.6
			c17,0,31.7,7.1,37.9,23.6l-16.2,7.1c-3.4-9.4-11.5-14.8-21.7-14.8c-16.4,0-22.4,14.2-22.4,28.6c0,14.8,6.5,27.6,22.8,27.6
			c11.5,0,19.3-6.4,22.8-16.9L1103,231.9z"/>
		<path d="M1194.1,237.4c-7,14.8-22.1,19.9-37.5,19.9c-26.5,0-43.2-17.7-43.2-43.9c0-24.6,17-43.6,42.3-43.6
			c27.2,0,40.4,15.9,40.4,48.3h-62.2c0,14.2,8.2,24.6,23.5,24.6c9.1,0,16.6-3.7,21-12.2L1194.1,237.4z M1176,204.9
			c-0.6-12.7-8.3-20.5-20.2-20.5c-12.6,0-20,8.9-21.7,20.5H1176z"/>
	</g>
	<g>
		<path d="M359.2,104.4l37-53.4h-33.2V40.5h50.6v5.2l-36.1,53.4h35v10.5h-53.3V104.4z"/>
		<path d="M445.2,58c15.4,0,27.2,10.8,27.2,26.3c0,15.9-12.4,26.4-27.7,26.4c-15.4,0-27.8-10.7-27.8-26.1
			C416.9,68.6,430,58,445.2,58z M459.4,84.3c0-9.3-4.7-17.1-14.7-17.1c-10.2,0-14.3,8.1-14.3,17.4c0,9,4.8,16.6,14.6,16.6
			C455.2,101.3,459.4,93.2,459.4,84.3z"/>
		<path d="M481.2,36.1h12.1v31c3.3-6.3,9.9-9.1,16.9-9.1c12.1,0,18.2,8.5,18.2,20v31.7h-12.2V79.2c0-7.3-3.8-11.3-10.8-11.3
			c-7.8,0-12.1,4.8-12.1,12v29.7h-12.1V36.1z"/>
		<path d="M564.6,58c15.4,0,27.2,10.8,27.2,26.3c0,15.9-12.4,26.4-27.7,26.4c-15.4,0-27.8-10.7-27.8-26.1
			C536.3,68.6,549.4,58,564.6,58z M578.8,84.3c0-9.3-4.7-17.1-14.7-17.1c-10.2,0-14.3,8.1-14.3,17.4c0,9,4.8,16.6,14.6,16.6
			C574.5,101.3,578.8,93.2,578.8,84.3z"/>
	</g>
</g>
<g>
	<g>
		<path class="st3" d="M260.6,293H38.6c-9.5,0-18.6-4-25.1-11c-6.4-7-9.7-16.4-8.9-25.9L19.4,81.4c0.4-4.7,4.5-8.2,9.2-7.8
			c4.7,0.4,8.2,4.5,7.8,9.2L21.7,257.5c-0.4,4.8,1.2,9.4,4.4,13c3.3,3.5,7.7,5.5,12.5,5.5h221.9c4.8,0,9.3-2,12.5-5.5
			s4.8-8.2,4.4-13L260.8,58.1c-0.3-3.5-1.6-6.7-3.8-9.4l-18.5-22.5c-3.3-4-8-6.2-13.2-6.2H73.8c-5.1,0-9.9,2.3-13.2,6.2L48.6,40.9
			h181c4.7,0,8.5,3.8,8.5,8.5s-3.8,8.5-8.5,8.5H36.4c-4.4,0-8.3-2.5-10.1-6.4c-1.9-4-1.3-8.5,1.5-11.9l19.8-24.2
			C54,7.5,63.6,3,73.8,3h151.5c10.2,0,19.8,4.5,26.3,12.5L270,37.9c4.4,5.4,7,11.8,7.6,18.7l16.8,199.5c0.8,9.5-2.4,18.9-8.9,25.9
			C279.2,289,270.1,293,260.6,293z"/>
	</g>
	<g>
		<path class="st3" d="M149.6,165.2c-19.4,0-37.6-7.5-51.3-21.2s-21.2-31.9-21.2-51.3c0-4.7,3.8-8.5,8.5-8.5s8.5,3.8,8.5,8.5
			c0,30.6,24.9,55.5,55.5,55.5s55.5-24.9,55.5-55.5c0-4.7,3.8-8.5,8.5-8.5c4.7,0,8.5,3.8,8.5,8.5c0,19.4-7.5,37.6-21.2,51.3
			C187.2,157.7,169,165.2,149.6,165.2z"/>
	</g>
	<g>
		<circle class="st4" cx="60.2" cy="185.5" r="9.9"/>
	</g>
	<g>
		<circle class="st4" cx="60.2" cy="215.2" r="9.9"/>
	</g>
	<g>
		<circle class="st4" cx="60.2" cy="245" r="9.9"/>
	</g>
</g>
</svg>
