<svg id="Layer_1" data-name="Layer 1" xmlns="http://www.w3.org/2000/svg" viewBox="0 0 176.68 32.01"><defs><style>.cls-1{fill:#1d1c1a;}</style></defs><path class="cls-1" d="M56.09,10.91a11.69,11.69,0,0,1,.81-4,8.65,8.65,0,0,1,2.19-3.16,9.64,9.64,0,0,1,3.45-2A14.22,14.22,0,0,1,67.29,1a14.66,14.66,0,0,1,5.29.83,10.47,10.47,0,0,1,3.31,2,7,7,0,0,1,1.73,2.39,7.55,7.55,0,0,1,.58,2.09.81.81,0,0,1-.28.71,1,1,0,0,1-.72.28h-3a1,1,0,0,1-.65-.2,1.33,1.33,0,0,1-.35-.43A3.11,3.11,0,0,0,72.81,8a4.31,4.31,0,0,0-1-1,6.83,6.83,0,0,0-1.72-1,7.85,7.85,0,0,0-2.76-.42A6.31,6.31,0,0,0,62.87,7.1a5.45,5.45,0,0,0-1.77,4c0,.93-.08,1.93-.08,3s0,2.07.08,3a5.7,5.7,0,0,0,1.77,4.44,6.6,6.6,0,0,0,4.42,1.39,9.61,9.61,0,0,0,2.5-.3,5,5,0,0,0,2-1,4.29,4.29,0,0,0,1.3-1.71,6.77,6.77,0,0,0,.46-2.67V17h-5a1,1,0,0,1-.7-.3.93.93,0,0,1-.29-.7V13.34a.93.93,0,0,1,.29-.7,1,1,0,0,1,.7-.29h9a1,1,0,0,1,.71.29,1,1,0,0,1,.29.7V17.4a11.29,11.29,0,0,1-.7,4.07,8.69,8.69,0,0,1-2.1,3.21,9.86,9.86,0,0,1-3.5,2.1,16.44,16.44,0,0,1-9.77,0,9.25,9.25,0,0,1-3.42-2.07A8.93,8.93,0,0,1,57,21.52a12.25,12.25,0,0,1-.88-4.05c0-.46,0-1-.05-1.55s0-1.14,0-1.73V12.46C56,11.89,56.09,11.38,56.09,10.91Z" transform="translate(-1.68 -0.99)"/><path class="cls-1" d="M80.2,17.58a11.7,11.7,0,0,1,.63-3.89,9.23,9.23,0,0,1,1.81-3.16,8.15,8.15,0,0,1,2.85-2.12,8.75,8.75,0,0,1,3.74-.78A8.91,8.91,0,0,1,93,8.39a8.8,8.8,0,0,1,2.86,2,8.89,8.89,0,0,1,1.82,3A9.9,9.9,0,0,1,98.3,17v1.66a1,1,0,0,1-1,1H85a3.09,3.09,0,0,0,.35,1.49,3.39,3.39,0,0,0,.94,1.09,4.34,4.34,0,0,0,1.37.66,5.63,5.63,0,0,0,1.58.22,6.21,6.21,0,0,0,1.92-.24,3.83,3.83,0,0,0,1.21-.61,3.49,3.49,0,0,1,.67-.4,1.66,1.66,0,0,1,.7-.11h3a1,1,0,0,1,.71.29.85.85,0,0,1,.28.7,3,3,0,0,1-.63,1.32,6.32,6.32,0,0,1-1.6,1.58A10.39,10.39,0,0,1,92.86,27a10.92,10.92,0,0,1-3.63.55,9.4,9.4,0,0,1-3.74-.72,7.93,7.93,0,0,1-2.85-2,9.19,9.19,0,0,1-1.81-3.15A12.41,12.41,0,0,1,80.2,17.58Zm9-5.52a4.72,4.72,0,0,0-1.82.31,4,4,0,0,0-1.27.81,3.79,3.79,0,0,0-.8,1.1A4.38,4.38,0,0,0,85,15.45h8.33a6.66,6.66,0,0,0-.2-1.17,3,3,0,0,0-.67-1.1,3.44,3.44,0,0,0-1.21-.81,5.14,5.14,0,0,0-2-.31Z" transform="translate(-1.68 -0.99)"/><path class="cls-1" d="M105.9,20.24a2.58,2.58,0,0,0,.61,1.82,3,3,0,0,0,2.27.68H111a1,1,0,0,1,1,1v2.43a1,1,0,0,1-.3.7.93.93,0,0,1-.7.29H108.3A7.67,7.67,0,0,1,103,25.49a6.58,6.58,0,0,1-1.88-5.14V12.42h-1.4a.93.93,0,0,1-.7-.29,1,1,0,0,1-.3-.7V9a1,1,0,0,1,1-1h1.4V2.88a1,1,0,0,1,.3-.7,1,1,0,0,1,.7-.29h2.8a1,1,0,0,1,1,1V8h4.76a1,1,0,0,1,.7.3,1,1,0,0,1,.29.7v2.43a1,1,0,0,1-.29.7.93.93,0,0,1-.7.29h-4.76Z" transform="translate(-1.68 -0.99)"/><path class="cls-1" d="M127.38,2.37a1.09,1.09,0,0,1,.86.3,2.68,2.68,0,0,1,.51.92L137.53,26a1,1,0,0,1,0,.25,1,1,0,0,1-1,1H134a1.34,1.34,0,0,1-1-.3,1.79,1.79,0,0,1-.39-.59l-1.54-4H119.75l-1.54,4a1.81,1.81,0,0,1-.4.59,1.34,1.34,0,0,1-1,.3h-2.58a1,1,0,0,1-.68-.28.92.92,0,0,1-.29-.68.53.53,0,0,1,0-.25l8.83-22.45a2.5,2.5,0,0,1,.5-.92,1.13,1.13,0,0,1,.86-.3Zm2,15.44-4-10.22-3.94,10.22Z" transform="translate(-1.68 -0.99)"/><path class="cls-1" d="M149.56,27.53a8.46,8.46,0,0,1-2-.22,8.08,8.08,0,0,1-1.59-.55A6.17,6.17,0,0,1,144,25.32V32a1,1,0,0,1-1,1h-2.8a1,1,0,0,1-.7-.29,1,1,0,0,1-.29-.71V9a.93.93,0,0,1,.29-.7,1,1,0,0,1,.7-.3H143a1,1,0,0,1,.7.3,1,1,0,0,1,.3.7v.84a5.19,5.19,0,0,1,.77-.71A6.6,6.6,0,0,1,146,8.41a8.12,8.12,0,0,1,1.59-.56,9,9,0,0,1,2-.22,7.56,7.56,0,0,1,3.34.72,8,8,0,0,1,2.54,1.92A9.4,9.4,0,0,1,157.09,13a10.37,10.37,0,0,1,.68,3.26v2.58a10.37,10.37,0,0,1-.68,3.26,9.41,9.41,0,0,1-1.66,2.77,8,8,0,0,1-2.54,1.91A7.54,7.54,0,0,1,149.56,27.53ZM153,18.61a10.13,10.13,0,0,0,0-2.06,4.85,4.85,0,0,0-1.48-3.44,4.59,4.59,0,0,0-3-1,4.48,4.48,0,0,0-3,1.06,4.4,4.4,0,0,0-1.41,3.06,12.29,12.29,0,0,0,0,2.8,4.3,4.3,0,0,0,4.46,4.13,4.56,4.56,0,0,0,3-1.05A4.86,4.86,0,0,0,153,18.61Z" transform="translate(-1.68 -0.99)"/><path class="cls-1" d="M170.15,27.53a8.31,8.31,0,0,1-2.05-.22,8.22,8.22,0,0,1-1.58-.55,5.6,5.6,0,0,1-1.16-.72,6.66,6.66,0,0,1-.78-.72V32a1,1,0,0,1-.29.71,1,1,0,0,1-.7.29h-2.8a1,1,0,0,1-1-1V9a1,1,0,0,1,1-1h2.8a1,1,0,0,1,.7.3,1,1,0,0,1,.29.7v.84a5.82,5.82,0,0,1,.78-.71,5.6,5.6,0,0,1,1.16-.72,7.93,7.93,0,0,1,1.57-.56,9.4,9.4,0,0,1,2-.22,7.51,7.51,0,0,1,3.33.72A7.83,7.83,0,0,1,176,10.27,9.12,9.12,0,0,1,177.68,13a9.84,9.84,0,0,1,.68,3.26v2.58a9.84,9.84,0,0,1-.68,3.26A9.08,9.08,0,0,1,176,24.87a8,8,0,0,1-2.54,1.91A7.54,7.54,0,0,1,170.15,27.53Zm3.42-8.92a8.87,8.87,0,0,0,0-2.06,4.85,4.85,0,0,0-1.48-3.44,4.64,4.64,0,0,0-3.06-1,4.5,4.5,0,0,0-3,1.06,4.41,4.41,0,0,0-1.42,3.06,10.85,10.85,0,0,0-.07,1.4,10.85,10.85,0,0,0,.07,1.4A4.46,4.46,0,0,0,166,22a4.41,4.41,0,0,0,3,1.11,4.62,4.62,0,0,0,3.06-1.08A4.89,4.89,0,0,0,173.57,18.61Z" transform="translate(-1.68 -0.99)"/><path class="cls-1" d="M47.39,14.18,35.09,1.9a1,1,0,0,0-1.41,0l0,0-2.4,2.41,9.86,9.87a1,1,0,0,1,.06,1.41l-.06.06L30.94,25.81l2.41,2.41a1,1,0,0,0,1.41.06l.06-.06L47.39,15.65a1,1,0,0,0,.06-1.41Z" transform="translate(-1.68 -0.99)"/><path class="cls-1" d="M26.46,2.79l-.89-.89a1,1,0,0,0-1.41-.07.46.46,0,0,0-.07.07L21.7,4.31l1.62,1.63,3.14,3.14,3.15-3.14Z" transform="translate(-1.68 -0.99)"/><path class="cls-1" d="M26.17,21,23,24.15,21.4,25.77l2.42,2.41a1,1,0,0,0,1.41.05l.05-.05.89-.89,3.15-3.14Z" transform="translate(-1.68 -0.99)"/><path class="cls-1" d="M31.57,14.18a1.05,1.05,0,0,1,0,1.47L26.17,21l3.15,3.15,8.54-8.54a1.05,1.05,0,0,0,0-1.47l-8.25-8.2L26.46,9.08Z" transform="translate(-1.68 -0.99)"/><path class="cls-1" d="M11.53,14.48l8.56-8.54L16.93,2.79l-.84-.89a1.05,1.05,0,0,0-1.47,0L2,14.48A1,1,0,0,0,2,15.89l.05,0L14.28,28.22a1,1,0,0,0,1.41.05l.05-.05.89-.89,3.15-3.14-8.25-8.25a.9.9,0,0,1-.35-1.28A.33.33,0,0,1,11.53,14.48Z" transform="translate(-1.68 -0.99)"/><path class="cls-1" d="M21.09,14.48l3.77-3.78L21.7,7.56,20.09,5.94l-8.54,8.54a1,1,0,0,0-.05,1.41l.05,0,8.25,8.25,1.62-1.62,3.15-3.15-3.48-3.48A1,1,0,0,1,21,14.53Z" transform="translate(-1.68 -0.99)"/><path class="cls-1" d="M21.09,15.94l3.48,3.48,3.77-3.77a1.05,1.05,0,0,0,0-1.47l-3.5-3.48-3.75,3.78A1,1,0,0,0,21,15.89Z" transform="translate(-1.68 -0.99)"/><path class="cls-1" d="M26.46,2.79l-.89-.89a1,1,0,0,0-1.41-.07.46.46,0,0,0-.07.07L21.7,4.31l1.62,1.63,3.14,3.14,3.15-3.14Z" transform="translate(-1.68 -0.99)"/><path class="cls-1" d="M26.17,21,23,24.15,21.4,25.77l2.42,2.41a1,1,0,0,0,1.41.05l.05-.05.89-.89,3.15-3.14Z" transform="translate(-1.68 -0.99)"/><path class="cls-1" d="M31.57,14.18a1.05,1.05,0,0,1,0,1.47L26.17,21l3.15,3.15,8.54-8.54a1.05,1.05,0,0,0,0-1.47l-8.25-8.2L26.46,9.08Z" transform="translate(-1.68 -0.99)"/><path class="cls-1" d="M11.53,14.48l8.56-8.54L16.93,2.79l-.84-.89a1.05,1.05,0,0,0-1.47,0L2,14.48A1,1,0,0,0,2,15.89l.05,0L14.28,28.22a1,1,0,0,0,1.41.05l.05-.05.89-.89,3.15-3.14-8.25-8.25a.9.9,0,0,1-.35-1.28A.33.33,0,0,1,11.53,14.48Z" transform="translate(-1.68 -0.99)"/><path class="cls-1" d="M21.09,14.48l3.77-3.78L21.7,7.56,20.09,5.94l-8.54,8.54a1,1,0,0,0-.05,1.41l.05,0,8.25,8.25,1.62-1.62,3.15-3.15-3.48-3.48A1,1,0,0,1,21,14.53Z" transform="translate(-1.68 -0.99)"/><path class="cls-1" d="M21.09,15.94l3.48,3.48,3.77-3.77a1.05,1.05,0,0,0,0-1.47l-3.5-3.48-3.75,3.78A1,1,0,0,0,21,15.89Z" transform="translate(-1.68 -0.99)"/></svg>